# xmcd
#
# Track frame offsets:
#	150
#	17736
#	37506
#	57846
#	73656
#	86952
#	103212
#	125502
#	137691
#	152619
#	166269
#	178651
#
# Disc length: 2657 seconds
#
# Revision: 1
# Processed by: cddbd v1.5.2PL0 Copyright (c) Steve Scherf et al.
# Submitted via: audiograbber 1.83.01
#
DISCID=9a0a5f0c
DTITLE=Albino - Resurrection Body
DYEAR=2008
DGENRE=
TTITLE0=Resurrection Body
TTITLE1=Always on the wrong sideTrack  2
TTITLE2=one more drink
TTITLE3=Inside love
TTITLE4=Dinosaur
TTITLE5=For the leaving
TTITLE6=Amaretto
TTITLE7=Bonny Wee
TTITLE8=Lovely child
TTITLE9=Blue blooded woman
TTITLE10=Be kind and merciful
TTITLE11=Buddha's lullaby
EXTD=
EXTT0=
EXTT1=
EXTT2=
EXTT3=
EXTT4=
EXTT5=
EXTT6=
EXTT7=
EXTT8=
EXTT9=
EXTT10=
EXTT11=
PLAYORDER=
